<!--?xml version="1.0" standalone="no"?-->              <svg id="sw-js-blob-svg" viewBox="0 0 100 100" xmlns="http://www.w3.org/2000/svg">                    <defs>                         <linearGradient id="sw-gradient" x1="0" x2="1" y1="1" y2="0">                            <stop id="stop1" stop-color="rgba(255, 255, 255, 1)" offset="0%"></stop>                            <stop id="stop2" stop-color="rgba(255, 255, 255, 1)" offset="100%"></stop>                        </linearGradient>                    </defs>                <path fill="url(#sw-gradient)" d="M15.9,-32.3C18.7,-25.9,17.9,-17.9,17.2,-12.2C16.6,-6.5,16.2,-3.3,17,0.5C17.9,4.2,19.9,8.4,18.9,11.3C17.9,14.2,14,15.8,10.3,18.1C6.7,20.5,3.3,23.7,-1.4,26.1C-6.1,28.5,-12.2,30.1,-16.8,28.2C-21.3,26.4,-24.4,21.1,-25.9,15.9C-27.4,10.6,-27.3,5.3,-29.3,-1.2C-31.4,-7.7,-35.6,-15.3,-34.6,-21.4C-33.5,-27.4,-27.3,-31.9,-20.6,-36.1C-14,-40.3,-7,-44.3,-0.2,-43.9C6.5,-43.5,13.1,-38.7,15.9,-32.3Z" width="100%" height="100%" transform="translate(50 50)" stroke-width="0" style="transition: 0.3s;"></path>              </svg>