<!--?xml version="1.0" standalone="no"?-->              <svg id="sw-js-blob-svg" viewBox="0 0 100 100" xmlns="http://www.w3.org/2000/svg">                    <defs>                         <linearGradient id="sw-gradient" x1="0" x2="1" y1="1" y2="0">                            <stop id="stop1" stop-color="rgba(248, 215.584, 55, 1)" offset="0%"></stop>                            <stop id="stop2" stop-color="rgba(251, 221.501, 31, 1)" offset="100%"></stop>                        </linearGradient>                    </defs>                <path fill="url(#sw-gradient)" d="M10.8,-19.1C17.2,-15.1,27.6,-18.5,30.9,-16.6C34.2,-14.7,30.2,-7.3,28.7,-0.8C27.3,5.6,28.3,11.3,26.9,16.4C25.4,21.5,21.5,26,16.6,30.6C11.8,35.1,5.9,39.7,1.5,37.1C-2.9,34.5,-5.7,24.7,-9.7,19.6C-13.6,14.5,-18.7,14.1,-25,11.6C-31.3,9.1,-38.9,4.6,-41.3,-1.4C-43.8,-7.4,-41.1,-14.8,-36.5,-20.3C-32,-25.8,-25.6,-29.6,-19.2,-33.6C-12.8,-37.6,-6.4,-41.9,-2.1,-38.3C2.2,-34.7,4.5,-23.2,10.8,-19.1Z" width="100%" height="100%" transform="translate(50 50)" stroke-width="0" style="transition: 0.3s;"></path>              </svg>