<!--?xml version="1.0" standalone="no"?-->              <svg id="sw-js-blob-svg" viewBox="0 0 100 100" xmlns="http://www.w3.org/2000/svg">                    <defs>                         <linearGradient id="sw-gradient" x1="0" x2="1" y1="1" y2="0">                            <stop id="stop1" stop-color="rgba(248, 202.508, 55, 1)" offset="0%"></stop>                            <stop id="stop2" stop-color="rgba(255, 235.298, 58.396, 1)" offset="100%"></stop>                        </linearGradient>                    </defs>                <path fill="url(#sw-gradient)" d="M25.8,-32C31.8,-25.7,33.8,-16,33.4,-7.5C32.9,1,30,8.3,25.8,14.1C21.5,20,16,24.3,9.2,28C2.3,31.7,-5.7,34.8,-12.6,33C-19.5,31.2,-25.2,24.5,-30.1,16.9C-35,9.3,-39.1,0.9,-39.2,-8.3C-39.2,-17.5,-35.2,-27.4,-28,-33.4C-20.9,-39.5,-10.4,-41.7,-0.3,-41.4C9.9,-41.1,19.8,-38.3,25.8,-32Z" width="100%" height="100%" transform="translate(50 50)" stroke-width="0" style="transition: 0.3s;"></path>              </svg>