<?xml version="1.0" encoding="UTF-8"?>
<!DOCTYPE svg PUBLIC "-//W3C//DTD SVG 1.1//EN" "http://www.w3.org/Graphics/SVG/1.1/DTD/svg11.dtd">
<!-- Creator: CorelDRAW -->
<svg xmlns="http://www.w3.org/2000/svg" xml:space="preserve" width="2048px" height="2048px" style="shape-rendering:geometricPrecision; text-rendering:geometricPrecision; image-rendering:optimizeQuality; fill-rule:evenodd; clip-rule:evenodd"
viewBox="0 0 2048 2048"
 xmlns:xlink="http://www.w3.org/1999/xlink">
 <defs>
  <style type="text/css">
   <![CDATA[
    .fil1 {fill:none}
    .fil0 {fill:#00838F}
    .fil2 {fill:#FFFFFE;fill-rule:nonzero}
   ]]>
  </style>
 </defs>
 <g id="Layer_x0020_1">
  <metadata id="CorelCorpID_0Corel-Layer"/>
  <rect class="fil0" width="2048" height="2048"/>
  <rect class="fil1" x="255.999" y="255.999" width="1536" height="1536"/>
  <path class="fil2" d="M1024 319.997c35.3433,0 67.3441,14.3303 90.5068,37.4941 23.1638,23.1626 37.4941,55.1634 37.4941,90.5068 0,35.341 -14.3291,67.3418 -37.4941,90.5068 -23.1626,23.1638 -55.1634,37.4941 -90.5068,37.4941 -35.3433,0 -67.3441,-14.3303 -90.5068,-37.4941 -23.165,-23.165 -37.4941,-55.1658 -37.4941,-90.5068 0,-35.3433 14.3303,-67.3441 37.4941,-90.5068 23.1626,-23.1638 55.1634,-37.4941 90.5068,-37.4941zm45.2563 82.7446c-11.5784,-11.5795 -27.5811,-18.7429 -45.2563,-18.7429 -17.6752,0 -33.678,7.16339 -45.2563,18.7429 -11.5795,11.5784 -18.7429,27.5811 -18.7429,45.2563 0,17.6752 7.16339,33.6768 18.7429,45.2563 11.5784,11.5795 27.5811,18.7429 45.2563,18.7429 17.6752,0 33.678,-7.16339 45.2563,-18.7429 11.5795,-11.5795 18.7429,-27.5811 18.7429,-45.2563 0,-17.6752 -7.16339,-33.678 -18.7429,-45.2563z"/>
  <path class="fil2" d="M1056 543.998c0,-17.6728 -14.328,-32.0008 -32.0008,-32.0008 -17.6728,0 -32.0008,14.328 -32.0008,32.0008l0 1152c0,17.6728 14.328,32.0008 32.0008,32.0008 17.6728,0 32.0008,-14.328 32.0008,-32.0008l0 -1152z"/>
  <polygon class="fil2" points="736.001,767.998 1312,767.998 1312,832 736.001,832 "/>
  <path class="fil2" d="M1469.88 1323.37c-51.9213,136.368 -152.715,226.547 -269.475,270.905 -56.2359,21.365 -116.271,31.9937 -176.358,31.9311 -60.202,-0.0625985 -120.266,-10.813 -176.437,-32.1992 -116.979,-44.5394 -217.877,-134.93 -269.482,-270.762l59.7497 -22.5c44.4969,117.122 131.545,195.08 232.482,233.512 49.1918,18.7288 101.505,28.1433 153.686,28.1977 52.2957,0.0543308 104.669,-9.24213 153.858,-27.9295 100.5,-38.1803 187.343,-116.026 232.225,-233.906l59.7497 22.7504z"/>
  <polygon class="fil2" points="1495.58,1425.25 1428.63,1321.31 1326.25,1372.5 1297.75,1315.5 1425.75,1251.5 1451.37,1238.69 1466.88,1262.75 1549.33,1390.75 "/>
  <polygon class="fil2" points="499.119,1390.75 581.576,1262.75 597.078,1238.69 622.701,1251.5 750.701,1315.5 722.201,1372.5 619.825,1321.31 552.869,1425.25 "/>
 </g>
</svg>
